<svg width="28" height="28" viewBox="0 0 28 28" fill="none" xmlns="http://www.w3.org/2000/svg">
<path d="M24.745 6.39333L24.08 4.67833L22.9133 6.10167C22.9133 6.10167 20.3117 9.275 16.9283 9.765C16.4383 9.835 15.9367 9.91667 15.4 10.0333C15.375 8.61077 15.0612 7.20812 14.4776 5.91054C13.894 4.61296 13.0528 3.44753 12.005 2.485L10.7217 1.16667L10.2783 2.92833C9.79379 4.48779 8.8151 5.84731 7.49 6.80167C5.51428 7.86762 3.94716 9.55781 3.03333 11.6083C2.67873 12.4605 2.49618 13.3745 2.49618 14.2975C2.49618 15.2205 2.67873 16.1345 3.03333 16.9867C3.52225 18.1613 4.44597 19.1018 5.61167 19.6117L5.75167 19.67C5.72811 20.2762 5.77509 20.883 5.89167 21.4783C5.61167 21.4783 5.33167 21.4783 5.06333 21.4783C4.07643 21.4981 3.09244 21.3643 2.14667 21.0817L1.87833 21L1.14333 22.995L1.435 23.0883C2.61295 23.4547 3.84154 23.6319 5.075 23.6133C5.61167 23.6133 6.16 23.6133 6.70833 23.52C6.95623 23.9429 7.25391 24.3346 7.595 24.6867C8.82599 25.8279 10.443 26.4614 12.1217 26.46H12.4133C15.0798 26.3955 17.6539 25.4706 19.7517 23.8233L19.985 23.6483C22.1667 21.9333 28.735 16.7883 24.745 6.39333ZM6.16 17.5117C5.62408 17.1902 5.21284 16.6968 4.99333 16.1117C4.75601 15.512 4.64 14.8712 4.65201 14.2263C4.66403 13.5815 4.80383 12.9454 5.06333 12.355C5.80135 10.7505 7.04796 9.43415 8.61 8.61C9.88241 7.76234 10.9054 6.59031 11.5733 5.215C12.7898 6.74476 13.378 8.68039 13.2183 10.6283C11.5268 11.1748 9.98248 12.1006 8.70333 13.335C7.52406 14.4962 6.65034 15.931 6.16 17.5117ZM19.705 16.345L19.9033 16.1233L18.3517 14.6767L18.1533 14.8983C15.506 17.997 11.9712 20.2083 8.02667 21.2333C7.8892 20.6129 7.86156 19.9733 7.945 19.3433C8.18129 17.6309 8.98185 16.0463 10.22 14.84C12.1678 13.1137 14.6253 12.0693 17.22 11.865C19.4907 11.4294 21.5907 10.3572 23.275 8.77333C23.6702 10.0702 23.8668 11.4193 23.8583 12.775C23.8547 13.2241 23.8196 13.6724 23.7533 14.1167C23.4475 16.2295 22.5124 18.2012 21.07 19.775C20.3618 20.5662 19.5806 21.2889 18.7367 21.9333L18.445 22.1083C15.4117 24.5117 10.955 24.99 9.11167 23.1233C13.2292 21.9097 16.9081 19.5315 19.705 16.275V16.345Z" fill="#00D2DF"/>
<path d="M20.7783 15.1083C21.105 14.7117 21.4433 14.3033 21.77 13.8717L21.945 13.6383L20.265 12.3433L20.09 12.5767C19.775 12.985 19.46 13.37 19.145 13.7433L18.9583 13.965L20.5917 15.33L20.7783 15.1083Z" fill="#00D2DF"/>
</svg>
