<svg width="24" height="24" viewBox="0 0 24 24" fill="none" xmlns="http://www.w3.org/2000/svg">
<path d="M8.51327 13.0031C8.51327 12.5467 8.13655 12.1766 7.67184 12.1766C7.20713 12.1766 6.83041 12.5467 6.83041 13.0031C6.83041 15.6636 8.88999 17.6866 11.5985 17.6866C12.0632 17.6866 12.4399 17.3166 12.4399 16.8601C12.4399 16.4037 12.0632 16.0336 11.5985 16.0336C9.81941 16.0336 8.51327 14.7507 8.51327 13.0031Z" fill="black" fill-opacity="0.6"/>
<path fill-rule="evenodd" clip-rule="evenodd" d="M18.364 19.4107C21.8787 15.9584 21.8787 10.361 18.364 6.90868L12.595 1.24208C12.2664 0.919308 11.7336 0.919308 11.405 1.24208L5.63604 6.90868C2.12132 10.361 2.12132 15.9584 5.63604 19.4107C9.15076 22.8631 14.8492 22.8631 18.364 19.4107ZM17.174 8.07753C20.0315 10.8843 20.0315 15.4351 17.174 18.2419C14.3165 21.0487 9.68352 21.0487 6.826 18.2419C3.96848 15.4351 3.96848 10.8843 6.826 8.07753L12 2.99535L17.174 8.07753Z" fill="black" fill-opacity="0.6"/>
</svg>
