<svg width="24" height="24" viewBox="0 0 24 24" fill="none" xmlns="http://www.w3.org/2000/svg">
<path fill-rule="evenodd" clip-rule="evenodd" d="M9 4C9 2.34315 10.3431 1 12 1C13.6569 1 15 2.34315 15 4V13.9996C16.2144 14.9118 17 16.3642 17 18C17 20.7614 14.7614 23 12 23C9.23858 23 7 20.7614 7 18C7 16.3642 7.78555 14.9118 9 13.9996V4ZM11 14.9987L10.2012 15.5988C9.46798 16.1495 9 17.0198 9 18H15C15 17.0198 14.532 16.1495 13.7988 15.5988L13 14.9987V13H11V14.9987ZM13 10V12H11V10H13ZM13 9V7H11V9H13ZM13 4V6H11V4C11 3.44772 11.4477 3 12 3C12.5523 3 13 3.44772 13 4Z" fill="black" fill-opacity="0.6"/>
</svg>
